<mxfile host="app.diagrams.net" modified="2022-04-24T09:45:05.227Z" agent="5.0 (Windows NT 10.0; Win64; x64) AppleWebKit/537.36 (KHTML, like Gecko) Chrome/100.0.4896.60 Safari/537.36 Edg/100.0.1185.29" etag="5G1_fAru1Q2NUrvAngAe" version="17.4.6" type="github">
  <diagram id="SwkGvBBLi70s39nOGeNO" name="第 1 页">
    <mxGraphModel dx="710" dy="465" grid="1" gridSize="10" guides="1" tooltips="1" connect="1" arrows="1" fold="1" page="1" pageScale="1" pageWidth="827" pageHeight="1169" math="0" shadow="0">
      <root>
        <mxCell id="0" />
        <mxCell id="1" parent="0" />
        <mxCell id="_YCQO3Be_hAabtsPpOEw-9" style="edgeStyle=orthogonalEdgeStyle;rounded=0;orthogonalLoop=1;jettySize=auto;html=1;exitX=0;exitY=1;exitDx=0;exitDy=0;entryX=1;entryY=0;entryDx=0;entryDy=0;" edge="1" parent="1" source="_YCQO3Be_hAabtsPpOEw-1" target="_YCQO3Be_hAabtsPpOEw-2">
          <mxGeometry relative="1" as="geometry" />
        </mxCell>
        <mxCell id="_YCQO3Be_hAabtsPpOEw-17" style="edgeStyle=orthogonalEdgeStyle;rounded=0;orthogonalLoop=1;jettySize=auto;html=1;exitX=1;exitY=0.5;exitDx=0;exitDy=0;entryX=0.5;entryY=0;entryDx=0;entryDy=0;" edge="1" parent="1" source="_YCQO3Be_hAabtsPpOEw-1" target="_YCQO3Be_hAabtsPpOEw-3">
          <mxGeometry relative="1" as="geometry" />
        </mxCell>
        <mxCell id="_YCQO3Be_hAabtsPpOEw-1" value="1" style="ellipse;whiteSpace=wrap;html=1;aspect=fixed;" vertex="1" parent="1">
          <mxGeometry x="140" y="90" width="40" height="40" as="geometry" />
        </mxCell>
        <mxCell id="_YCQO3Be_hAabtsPpOEw-10" style="edgeStyle=orthogonalEdgeStyle;rounded=0;orthogonalLoop=1;jettySize=auto;html=1;exitX=0;exitY=1;exitDx=0;exitDy=0;entryX=1;entryY=0;entryDx=0;entryDy=0;" edge="1" parent="1" source="_YCQO3Be_hAabtsPpOEw-2" target="_YCQO3Be_hAabtsPpOEw-4">
          <mxGeometry relative="1" as="geometry" />
        </mxCell>
        <mxCell id="_YCQO3Be_hAabtsPpOEw-27" style="edgeStyle=orthogonalEdgeStyle;rounded=0;orthogonalLoop=1;jettySize=auto;html=1;" edge="1" parent="1" source="_YCQO3Be_hAabtsPpOEw-2">
          <mxGeometry relative="1" as="geometry">
            <mxPoint x="160" y="450" as="targetPoint" />
          </mxGeometry>
        </mxCell>
        <mxCell id="_YCQO3Be_hAabtsPpOEw-2" value="2" style="ellipse;whiteSpace=wrap;html=1;aspect=fixed;" vertex="1" parent="1">
          <mxGeometry x="80" y="150" width="40" height="40" as="geometry" />
        </mxCell>
        <mxCell id="_YCQO3Be_hAabtsPpOEw-18" style="edgeStyle=orthogonalEdgeStyle;rounded=0;orthogonalLoop=1;jettySize=auto;html=1;exitX=1;exitY=1;exitDx=0;exitDy=0;" edge="1" parent="1" source="_YCQO3Be_hAabtsPpOEw-3" target="_YCQO3Be_hAabtsPpOEw-13">
          <mxGeometry relative="1" as="geometry" />
        </mxCell>
        <mxCell id="_YCQO3Be_hAabtsPpOEw-3" value="6" style="ellipse;whiteSpace=wrap;html=1;aspect=fixed;" vertex="1" parent="1">
          <mxGeometry x="190" y="150" width="40" height="40" as="geometry" />
        </mxCell>
        <mxCell id="_YCQO3Be_hAabtsPpOEw-11" style="edgeStyle=orthogonalEdgeStyle;rounded=0;orthogonalLoop=1;jettySize=auto;html=1;exitX=0.5;exitY=1;exitDx=0;exitDy=0;entryX=0.5;entryY=0;entryDx=0;entryDy=0;" edge="1" parent="1" source="_YCQO3Be_hAabtsPpOEw-4" target="_YCQO3Be_hAabtsPpOEw-5">
          <mxGeometry relative="1" as="geometry" />
        </mxCell>
        <mxCell id="_YCQO3Be_hAabtsPpOEw-4" value="3" style="ellipse;whiteSpace=wrap;html=1;aspect=fixed;" vertex="1" parent="1">
          <mxGeometry x="30" y="210" width="40" height="40" as="geometry" />
        </mxCell>
        <mxCell id="_YCQO3Be_hAabtsPpOEw-12" style="edgeStyle=orthogonalEdgeStyle;rounded=0;orthogonalLoop=1;jettySize=auto;html=1;exitX=0.5;exitY=1;exitDx=0;exitDy=0;entryX=0.5;entryY=0;entryDx=0;entryDy=0;" edge="1" parent="1" source="_YCQO3Be_hAabtsPpOEw-5" target="_YCQO3Be_hAabtsPpOEw-7">
          <mxGeometry relative="1" as="geometry" />
        </mxCell>
        <mxCell id="_YCQO3Be_hAabtsPpOEw-5" value="4" style="ellipse;whiteSpace=wrap;html=1;aspect=fixed;" vertex="1" parent="1">
          <mxGeometry x="30" y="280" width="40" height="40" as="geometry" />
        </mxCell>
        <mxCell id="_YCQO3Be_hAabtsPpOEw-24" style="edgeStyle=orthogonalEdgeStyle;rounded=0;orthogonalLoop=1;jettySize=auto;html=1;entryX=1;entryY=0.5;entryDx=0;entryDy=0;" edge="1" parent="1" source="_YCQO3Be_hAabtsPpOEw-6" target="_YCQO3Be_hAabtsPpOEw-16">
          <mxGeometry relative="1" as="geometry" />
        </mxCell>
        <mxCell id="_YCQO3Be_hAabtsPpOEw-6" value="10" style="ellipse;whiteSpace=wrap;html=1;aspect=fixed;" vertex="1" parent="1">
          <mxGeometry x="280" y="390" width="40" height="40" as="geometry" />
        </mxCell>
        <mxCell id="_YCQO3Be_hAabtsPpOEw-28" style="edgeStyle=orthogonalEdgeStyle;rounded=0;orthogonalLoop=1;jettySize=auto;html=1;exitX=0.5;exitY=1;exitDx=0;exitDy=0;entryX=0;entryY=1;entryDx=0;entryDy=0;" edge="1" parent="1" source="_YCQO3Be_hAabtsPpOEw-7" target="_YCQO3Be_hAabtsPpOEw-16">
          <mxGeometry relative="1" as="geometry" />
        </mxCell>
        <mxCell id="_YCQO3Be_hAabtsPpOEw-7" value="5" style="ellipse;whiteSpace=wrap;html=1;aspect=fixed;" vertex="1" parent="1">
          <mxGeometry x="30" y="350" width="40" height="40" as="geometry" />
        </mxCell>
        <mxCell id="_YCQO3Be_hAabtsPpOEw-19" style="edgeStyle=orthogonalEdgeStyle;rounded=0;orthogonalLoop=1;jettySize=auto;html=1;exitX=1;exitY=1;exitDx=0;exitDy=0;entryX=0.5;entryY=0;entryDx=0;entryDy=0;" edge="1" parent="1" source="_YCQO3Be_hAabtsPpOEw-13" target="_YCQO3Be_hAabtsPpOEw-14">
          <mxGeometry relative="1" as="geometry" />
        </mxCell>
        <mxCell id="_YCQO3Be_hAabtsPpOEw-26" style="edgeStyle=orthogonalEdgeStyle;rounded=0;orthogonalLoop=1;jettySize=auto;html=1;" edge="1" parent="1" source="_YCQO3Be_hAabtsPpOEw-13" target="_YCQO3Be_hAabtsPpOEw-16">
          <mxGeometry relative="1" as="geometry">
            <Array as="points">
              <mxPoint x="190" y="230" />
              <mxPoint x="190" y="470" />
            </Array>
          </mxGeometry>
        </mxCell>
        <mxCell id="_YCQO3Be_hAabtsPpOEw-13" value="7" style="ellipse;whiteSpace=wrap;html=1;aspect=fixed;" vertex="1" parent="1">
          <mxGeometry x="230" y="210" width="40" height="40" as="geometry" />
        </mxCell>
        <mxCell id="_YCQO3Be_hAabtsPpOEw-20" style="edgeStyle=orthogonalEdgeStyle;rounded=0;orthogonalLoop=1;jettySize=auto;html=1;exitX=0.5;exitY=1;exitDx=0;exitDy=0;entryX=0.5;entryY=0;entryDx=0;entryDy=0;" edge="1" parent="1" source="_YCQO3Be_hAabtsPpOEw-14" target="_YCQO3Be_hAabtsPpOEw-15">
          <mxGeometry relative="1" as="geometry" />
        </mxCell>
        <mxCell id="_YCQO3Be_hAabtsPpOEw-14" value="8" style="ellipse;whiteSpace=wrap;html=1;aspect=fixed;" vertex="1" parent="1">
          <mxGeometry x="280" y="270" width="40" height="40" as="geometry" />
        </mxCell>
        <mxCell id="_YCQO3Be_hAabtsPpOEw-21" style="edgeStyle=orthogonalEdgeStyle;rounded=0;orthogonalLoop=1;jettySize=auto;html=1;exitX=0.5;exitY=1;exitDx=0;exitDy=0;" edge="1" parent="1" source="_YCQO3Be_hAabtsPpOEw-15" target="_YCQO3Be_hAabtsPpOEw-6">
          <mxGeometry relative="1" as="geometry" />
        </mxCell>
        <mxCell id="_YCQO3Be_hAabtsPpOEw-15" value="9" style="ellipse;whiteSpace=wrap;html=1;aspect=fixed;" vertex="1" parent="1">
          <mxGeometry x="280" y="330" width="40" height="40" as="geometry" />
        </mxCell>
        <mxCell id="_YCQO3Be_hAabtsPpOEw-16" value="11" style="ellipse;whiteSpace=wrap;html=1;aspect=fixed;" vertex="1" parent="1">
          <mxGeometry x="140" y="450" width="40" height="40" as="geometry" />
        </mxCell>
        <mxCell id="_YCQO3Be_hAabtsPpOEw-22" style="edgeStyle=orthogonalEdgeStyle;rounded=0;orthogonalLoop=1;jettySize=auto;html=1;exitX=0.5;exitY=1;exitDx=0;exitDy=0;" edge="1" parent="1" source="_YCQO3Be_hAabtsPpOEw-15">
          <mxGeometry relative="1" as="geometry">
            <mxPoint x="300" y="370" as="targetPoint" />
          </mxGeometry>
        </mxCell>
      </root>
    </mxGraphModel>
  </diagram>
</mxfile>
